<?xml version="1.0" encoding="utf-8"?>
<!-- Generator: Adobe Illustrator 16.0.4, SVG Export Plug-In . SVG Version: 6.00 Build 0)  -->
<!DOCTYPE svg PUBLIC "-//W3C//DTD SVG 1.1//EN" "http://www.w3.org/Graphics/SVG/1.1/DTD/svg11.dtd">
<svg version="1.1" id="Layer_1" xmlns="http://www.w3.org/2000/svg" xmlns:xlink="http://www.w3.org/1999/xlink" x="0px" y="0px"
	 width="20px" height="20px" viewBox="90 90 20 20" enable-background="new 90 90 20 20" xml:space="preserve">
<g>
	<path fill="#231F20" d="M103.02,110v-4.088v-8.579l1.208,1.131c0.395,0.371,0.898,0.554,1.4,0.554c0.547,0,1.093-0.219,1.495-0.648
		c0.368-0.396,0.554-0.896,0.554-1.398c0-0.548-0.219-1.095-0.649-1.497l-5.314-4.979c-0.396-0.368-0.898-0.552-1.401-0.554
		c-0.503,0-1.005,0.187-1.399,0.553l-5.328,4.979c-0.434,0.401-0.65,0.948-0.65,1.496c0,0.503,0.178,1.003,0.55,1.399
		c0.404,0.429,0.951,0.651,1.5,0.651c0.5,0,1.002-0.187,1.396-0.551l1.209-1.133v8.575V110H103.02L103.02,110z"/>
</g>
</svg>
