<?xml version="1.0" encoding="utf-8"?>
<!-- Generator: Adobe Illustrator 16.0.4, SVG Export Plug-In . SVG Version: 6.00 Build 0)  -->
<!DOCTYPE svg PUBLIC "-//W3C//DTD SVG 1.1//EN" "http://www.w3.org/Graphics/SVG/1.1/DTD/svg11.dtd">
<svg version="1.1" id="Layer_1" xmlns="http://www.w3.org/2000/svg" xmlns:xlink="http://www.w3.org/1999/xlink" x="0px" y="0px"
	 width="20px" height="20px" viewBox="0 0 20 20" enable-background="new 0 0 20 20" xml:space="preserve">
<g>
	<path fill="#231F20" d="M10.072,17.45c0.502,0,0.911-0.408,0.911-0.914V1.879c0-0.505-0.409-0.913-0.911-0.913
		c-0.309,0-1.75,0-2.056,0c-0.504,0-0.913,0.408-0.913,0.913v14.657c0,0.506,0.409,0.914,0.913,0.914
		C8.322,17.45,9.764,17.45,10.072,17.45z"/>
	<path fill="#231F20" d="M15.827,17.45c0.504,0,0.911-0.408,0.911-0.914V9.45c0-0.504-0.407-0.912-0.911-0.912
		c-0.31,0-1.749,0-2.053,0c-0.505,0-0.914,0.408-0.914,0.912v7.086c0,0.506,0.409,0.914,0.914,0.914
		C14.078,17.45,15.518,17.45,15.827,17.45z"/>
	<path fill="#231F20" d="M4.315,17.45c0.503,0,0.911-0.408,0.911-0.914V13.81c0-0.502-0.408-0.912-0.911-0.912
		c-0.306,0-1.748,0-2.054,0c-0.505,0-0.913,0.41-0.913,0.912v2.727c0,0.506,0.408,0.914,0.913,0.914
		C2.567,17.45,4.01,17.45,4.315,17.45z"/>
</g>
</svg>
