<?xml version="1.0" encoding="utf-8"?>
<!-- Generator: Adobe Illustrator 16.0.4, SVG Export Plug-In . SVG Version: 6.00 Build 0)  -->
<!DOCTYPE svg PUBLIC "-//W3C//DTD SVG 1.1//EN" "http://www.w3.org/Graphics/SVG/1.1/DTD/svg11.dtd">
<svg version="1.1" id="Layer_1" xmlns="http://www.w3.org/2000/svg" xmlns:xlink="http://www.w3.org/1999/xlink" x="0px" y="0px"
	 width="20px" height="20px" viewBox="90 90 20 20" enable-background="new 90 90 20 20" xml:space="preserve">
<g>
	<path fill="#010101" d="M106.296,95.723c-0.282-0.498-1.637-1.879-3.744-1.879c-0.152,0-0.308,0.009-0.468,0.023
		c-0.899,0.086-1.628,0.429-2.16,0.819c-0.265,0.196-0.927,0.884-0.974,0.904c-0.014,0.006-0.028,0.008-0.041,0.011
		c0,0-0.004,0-0.005,0.001c-0.01,0.001-0.021,0.004-0.031,0.004h-0.002l-0.004-0.001l-0.002,0.001h-0.004
		c-0.009,0-0.02-0.003-0.03-0.004c-0.001-0.001-0.005-0.001-0.005-0.001c-0.014-0.004-0.027-0.005-0.04-0.011
		c-0.043-0.019-0.729-0.708-0.964-0.884c-0.532-0.4-1.272-0.752-2.187-0.839c-0.159-0.014-0.315-0.023-0.467-0.023
		c-2.107,0-3.462,1.382-3.743,1.879c-0.125,0.182-0.222,0.439-0.222,0.691v7.797c0,0.201,0.151,0.421,0.336,0.421
		c0.024,0,0.048-0.005,0.072-0.012c0.79-0.253,1.929-0.835,3.446-0.835c0.042,0,0.083,0.001,0.127,0.003
		c0.165,0.003,0.326,0.016,0.484,0.03c0.141,0.011,0.277,0.03,0.412,0.049c0.043,0.006,0.088,0.011,0.13,0.017
		c0.115,0.019,0.225,0.04,0.333,0.062c0.063,0.012,0.128,0.026,0.188,0.038c0.084,0.02,0.167,0.04,0.247,0.06
		c0.091,0.023,0.179,0.048,0.263,0.072c0.044,0.015,0.09,0.025,0.133,0.038c0.563,0.174,0.999,0.369,1.252,0.485
		c0.041,0.018,0.076,0.021,0.113,0.028c0.006,0.005,0.011,0.006,0.017,0.006c0.032,0.006,0.059,0.012,0.085,0.012
		c0,0,0.007-0.001,0.012-0.001h0.004h0.006l0.012,0.001c0.027,0,0.056-0.006,0.085-0.012c0.006,0,0.012-0.001,0.018-0.006
		c0.037-0.008,0.073-0.01,0.112-0.028c0.255-0.116,0.691-0.312,1.254-0.485c0.044-0.013,0.087-0.023,0.13-0.037
		c0.086-0.025,0.175-0.05,0.264-0.073c0.08-0.02,0.164-0.04,0.247-0.06c0.062-0.012,0.125-0.026,0.188-0.038
		c0.026-0.005,0.055-0.01,0.08-0.016c-0.068-0.025-0.131-0.052-0.189-0.074c-0.347-0.132-0.869-0.333-0.882-0.917
		c-0.006-0.321,0.167-0.701,0.454-0.992c0.294-0.301,0.679-0.476,1.096-0.502l-1.126-2.346c-0.325-0.686-0.033-1.511,0.655-1.841
		c0.187-0.089,0.387-0.135,0.591-0.135c0.528,0,1.018,0.308,1.244,0.783l0.65,1.359c0.177-0.081,0.367-0.122,0.562-0.122
		c0.147,0,0.293,0.024,0.429,0.07c0.096-0.083,0.202-0.154,0.32-0.209c0.185-0.089,0.384-0.133,0.59-0.133
		c0.282,0,0.554,0.089,0.778,0.241c0.023-0.013,0.049-0.026,0.075-0.037c0.004-0.001,0.008-0.003,0.014-0.006v-2.654
		C106.517,96.162,106.421,95.904,106.296,95.723z M98.174,103.297c-0.739-0.264-1.679-0.542-2.823-0.542
		c-0.048,0-0.097,0-0.146,0.001c-0.05-0.001-0.099-0.001-0.146-0.001c-1.144,0-2.083,0.278-2.822,0.542v-6.882
		c0-0.023,0.019-0.075,0.041-0.106c0.015-0.023,0.034-0.053,0.049-0.078c0.12-0.209,1.158-1.353,2.843-1.353
		c0.121,0,0.246,0.007,0.37,0.019c0.172,0.014,0.345,0.042,0.514,0.074c0.011,0.003,0.019,0.004,0.028,0.006
		c0.014,0.003,0.03,0.007,0.044,0.01c1.16,0.29,1.861,1.074,1.959,1.244c0.014,0.026,0.032,0.056,0.049,0.078
		c0.021,0.033,0.038,0.083,0.04,0.106V103.297L98.174,103.297z"/>
	<path fill="#010101" d="M101.854,97.826c0.252,0,0.495,0.142,0.61,0.383l1.198,2.503c-0.092-0.314,0.053-0.654,0.357-0.8
		c0.094-0.044,0.193-0.066,0.291-0.066c0.254,0,0.495,0.142,0.611,0.386l0.062,0.13c-0.052-0.29,0.095-0.591,0.373-0.723
		c0.095-0.044,0.195-0.066,0.293-0.066c0.252,0,0.493,0.142,0.611,0.383l0.166,0.353c0-0.247,0.138-0.486,0.376-0.601
		c0.092-0.043,0.189-0.063,0.284-0.063c0.247,0,0.48,0.138,0.594,0.373l1.088,2.27c0.022,0.049,0.038,0.098,0.049,0.146
		c0.43,1.11-0.221,2.464-1.516,3.082c-0.436,0.209-0.895,0.31-1.331,0.31c-0.407,0-0.801-0.089-1.14-0.254l-0.002,0.01
		c-0.224-0.105-0.801-0.486-1.543-1.176c-1.33-1.24-2.393-1.194-2.4-1.481c-0.004-0.2,0.305-0.781,0.959-0.781
		c0.266,0,0.588,0.097,0.971,0.354c0.1,0.067,0.193,0.123,0.286,0.178l-1.858-3.881c-0.162-0.337-0.019-0.74,0.318-0.902
		C101.656,97.848,101.756,97.826,101.854,97.826"/>
</g>
</svg>
