<?xml version="1.0" encoding="utf-8"?>
<!-- Generator: Adobe Illustrator 16.0.4, SVG Export Plug-In . SVG Version: 6.00 Build 0)  -->
<!DOCTYPE svg PUBLIC "-//W3C//DTD SVG 1.1//EN" "http://www.w3.org/Graphics/SVG/1.1/DTD/svg11.dtd">
<svg version="1.1" id="Layer_1" xmlns="http://www.w3.org/2000/svg" xmlns:xlink="http://www.w3.org/1999/xlink" x="0px" y="0px"
	 width="20px" height="20px" viewBox="0 0 20 20" enable-background="new 0 0 20 20" xml:space="preserve">
<path fill="#FFFFFF" d="M17.593,6.228h-4.866V3.771c0-0.38-0.308-0.687-0.685-0.687H1.354c-0.377,0-0.684,0.308-0.684,0.687v8.111
	c0,0.382,0.305,0.687,0.684,0.687h2.16c0.271,0.019,0.55,0.179,0.55,0.519c0,0-0.026,1.44-0.016,1.481
	c0,0.306,0.247,0.553,0.552,0.553c0.194,0,0.364-0.104,0.462-0.254l0,0c0.028-0.057,1.522-1.766,1.522-1.766
	c0.351-0.438,0.625-0.512,0.987-0.531h0.638v1.699c0,0.629,0.512,1.145,1.144,1.145l3.293-0.002c0.18,0.013,0.25,0.018,0.449,0.262
	c0.441,0.506,1.084,1.243,1.234,1.428l0.098,0.112c0.116,0.11,0.428,0.368,0.778,0.368c0.565,0,1.026-0.459,1.028-1.025
	c0.007-0.133,0.002-0.416-0.012-1.145h1.367c0.633,0,1.145-0.514,1.145-1.145V7.372C18.736,6.742,18.225,6.228,17.593,6.228z
	 M3.509,8.822c-0.515,0-0.935-0.421-0.935-0.938c0-0.517,0.42-0.938,0.935-0.938c0.516,0,0.937,0.421,0.937,0.938
	C4.446,8.401,4.025,8.822,3.509,8.822z M9.887,6.947c0.515,0,0.935,0.421,0.935,0.938c0,0.516-0.42,0.938-0.935,0.938
	c-0.516,0-0.936-0.421-0.936-0.938C8.952,7.368,9.371,6.947,9.887,6.947z M6.696,8.822c-0.516,0-0.935-0.421-0.935-0.938
	c0-0.517,0.418-0.938,0.935-0.938c0.516,0,0.935,0.421,0.935,0.938C7.631,8.401,7.212,8.822,6.696,8.822z M17.593,14.288
	l-1.499,0.002c-0.578,0.037-0.994,0.457-0.994,1.01c0,0,0.012,0.626,0.017,0.984c-0.173-0.207-0.505-0.589-1.157-1.333
	c-0.41-0.512-0.794-0.635-1.275-0.663l-3.349-0.021l0.004-1.699h2.704c0.379,0,0.686-0.308,0.686-0.687V7.36l4.885,0.012
	L17.593,14.288z"/>
</svg>
