<?xml version="1.0" encoding="utf-8"?>
<!-- Generator: Adobe Illustrator 16.0.4, SVG Export Plug-In . SVG Version: 6.00 Build 0)  -->
<!DOCTYPE svg PUBLIC "-//W3C//DTD SVG 1.1//EN" "http://www.w3.org/Graphics/SVG/1.1/DTD/svg11.dtd">
<svg version="1.1" id="Layer_1" xmlns="http://www.w3.org/2000/svg" xmlns:xlink="http://www.w3.org/1999/xlink" x="0px" y="0px"
	 width="20px" height="20px" viewBox="90 90 20 20" enable-background="new 90 90 20 20" xml:space="preserve">
<path d="M99.941,90.5c-5.114,0-9.274,4.161-9.274,9.275c0,5.115,4.161,9.274,9.274,9.274c5.112,0,9.273-4.159,9.273-9.274
	C109.215,94.661,105.054,90.5,99.941,90.5z M99.941,92.496c1.382,0,2.675,0.387,3.777,1.059l-9.998,9.998
	c-0.671-1.103-1.06-2.396-1.06-3.778C92.662,95.761,95.928,92.496,99.941,92.496z M99.941,107.054c-1.43,0-2.764-0.415-3.89-1.13
	l10.039-10.039c0.713,1.126,1.13,2.46,1.13,3.89C107.221,103.788,103.955,107.054,99.941,107.054z"/>
</svg>
