<?xml version="1.0" encoding="utf-8"?>
<!-- Generator: Adobe Illustrator 16.0.4, SVG Export Plug-In . SVG Version: 6.00 Build 0)  -->
<!DOCTYPE svg PUBLIC "-//W3C//DTD SVG 1.1//EN" "http://www.w3.org/Graphics/SVG/1.1/DTD/svg11.dtd">
<svg version="1.1" id="Layer_1" xmlns="http://www.w3.org/2000/svg" xmlns:xlink="http://www.w3.org/1999/xlink" x="0px" y="0px"
	 width="20px" height="20px" viewBox="0 0 20 20" enable-background="new 0 0 20 20" xml:space="preserve">
<path fill="#FFFFFF" d="M12.296,10l5.042-5.042c0.635-0.634,0.635-1.662,0-2.296c-0.634-0.634-1.661-0.634-2.296,0L10,7.704
	L4.958,2.663c-0.634-0.634-1.662-0.634-2.296,0c-0.634,0.634-0.634,1.662,0,2.296L7.705,10l-5.042,5.042
	c-0.634,0.635-0.634,1.662,0,2.297c0.317,0.316,0.732,0.476,1.148,0.476c0.415,0,0.831-0.158,1.147-0.476L10,12.296l5.042,5.043
	c0.317,0.316,0.731,0.476,1.147,0.476s0.832-0.158,1.148-0.476c0.635-0.635,0.635-1.662,0-2.297L12.296,10z"/>
</svg>
