<?xml version="1.0" encoding="utf-8"?>
<!-- Generator: Adobe Illustrator 16.0.4, SVG Export Plug-In . SVG Version: 6.00 Build 0)  -->
<!DOCTYPE svg PUBLIC "-//W3C//DTD SVG 1.1//EN" "http://www.w3.org/Graphics/SVG/1.1/DTD/svg11.dtd">
<svg version="1.1" id="Layer_1" xmlns="http://www.w3.org/2000/svg" xmlns:xlink="http://www.w3.org/1999/xlink" x="0px" y="0px"
	 width="20px" height="20px" viewBox="90 90 20 20" enable-background="new 90 90 20 20" xml:space="preserve">
<g>
	<g>
		<g>
			<path fill="#231F20" d="M107.997,92.872c-0.425-0.509-0.959-0.65-1.514-0.303l-0.048,0.028c-1.757,1.024-3.666,2.952-3.744,3.031
				c-2.07,2.104-3.971,4.482-5.4,6.751l-0.576-0.845c-0.645-0.941-1.069-1.565-1.332-1.925c-0.462-0.621-0.937-1.262-1.699-1.262
				c-0.353,0-0.725,0.133-1.178,0.417c-1.336,0.838-0.432,2.367-0.088,2.949c0.359,0.577,0.689,1.115,1.022,1.664
				c0.598,0.979,1.214,1.989,2.054,3.305c0.416,0.648,0.916,0.939,1.625,0.939c0.826,0,1.256-0.522,1.596-1.087
				c0.333-0.547,0.647-1.131,0.982-1.746c0.97-1.788,2.176-4.015,4.592-6.811c0.02-0.024,2.086-2.435,3.492-3.45
				c0.049-0.026,0.086-0.072,0.256-0.219C108.698,93.694,108.242,93.167,107.997,92.872z"/>
		</g>
	</g>
</g>
</svg>
