<?xml version="1.0" encoding="utf-8"?>
<!-- Generator: Adobe Illustrator 16.0.4, SVG Export Plug-In . SVG Version: 6.00 Build 0)  -->
<!DOCTYPE svg PUBLIC "-//W3C//DTD SVG 1.1//EN" "http://www.w3.org/Graphics/SVG/1.1/DTD/svg11.dtd">
<svg version="1.1" id="Layer_1" xmlns="http://www.w3.org/2000/svg" xmlns:xlink="http://www.w3.org/1999/xlink" x="0px" y="0px"
	 width="20px" height="20px" viewBox="0 0 20 20" enable-background="new 0 0 20 20" xml:space="preserve">
<g>
	<g>
		<path fill="#FFFFFF" d="M16.952,4.742c0.02,0.218-0.049,0.415-0.215,0.587c-0.092,0.096-0.205,0.168-0.295,0.221l-0.077,0.056
			c-4.05,2.668-4.356,2.394-4.636,2.151c-0.115-0.106-0.285-0.332-0.092-0.717l0.18-0.349c0.107-0.205,0.205-0.399,0.271-0.537
			c-0.125-0.192-1.756-0.606-4.042,0.093c-1.555,0.477-2.943,1.787-3.99,3.695c-0.123,0.229-0.418,0.279-0.674,0.134
			C3.119,9.93,3.003,9.657,3.058,9.425c1.299-5.655,7.213-6.976,8.971-6.276c-0.094-0.194-0.25-0.474-0.396-0.74
			c-0.2-0.42-0.104-0.657,0.017-0.778l0,0c0.763-0.778,4.75,2.287,4.789,2.318C16.754,4.218,16.918,4.476,16.952,4.742z"/>
	</g>
	<g>
		<path fill="#FFFFFF" d="M8.087,11.35h7.51c0.332,0,0.6-0.267,0.6-0.595c0-0.33-0.271-0.597-0.6-0.597h-7.51
			c-0.328,0-0.596,0.267-0.596,0.597C7.492,11.085,7.759,11.35,8.087,11.35z"/>
		<path fill="#FFFFFF" d="M15.599,12.548H8.088c-0.328,0-0.596,0.269-0.596,0.597s0.269,0.596,0.596,0.596h7.511
			c0.33,0,0.599-0.268,0.599-0.596C16.196,12.817,15.929,12.548,15.599,12.548z"/>
		<path fill="#FFFFFF" d="M15.599,14.938H8.088c-0.328,0-0.596,0.268-0.596,0.596c0,0.331,0.269,0.598,0.596,0.598h7.511
			c0.33,0,0.599-0.267,0.599-0.598C16.196,15.208,15.929,14.938,15.599,14.938z"/>
	</g>
	<path fill="#FFFFFF" d="M8.087,18.497h7.51c0.332,0,0.6-0.268,0.6-0.596c0-0.329-0.271-0.597-0.6-0.597h-7.51
		c-0.328,0-0.596,0.268-0.596,0.597S7.759,18.497,8.087,18.497z"/>
</g>
</svg>
