<?xml version="1.0" encoding="utf-8"?>
<!-- Generator: Adobe Illustrator 16.0.4, SVG Export Plug-In . SVG Version: 6.00 Build 0)  -->
<!DOCTYPE svg PUBLIC "-//W3C//DTD SVG 1.1//EN" "http://www.w3.org/Graphics/SVG/1.1/DTD/svg11.dtd">
<svg version="1.1" id="Layer_1" xmlns="http://www.w3.org/2000/svg" xmlns:xlink="http://www.w3.org/1999/xlink" x="0px" y="0px"
	 width="20px" height="20px" viewBox="0 0 20 20" enable-background="new 0 0 20 20" xml:space="preserve">
<path fill="#FFFFFF" d="M16.926,10.641c0.008-0.107,0.012-0.214,0.016-0.323c0.004-0.095,0.008-0.191,0.017-0.351
	c-0.009-0.096-0.013-0.192-0.017-0.289c-0.004-0.102-0.008-0.204-0.016-0.306c0.649-0.312,1.264-0.672,1.795-1.049
	c0.127-0.09,0.188-0.248,0.152-0.402c-0.098-0.427-0.229-0.854-0.411-1.305c-0.054-0.138-0.185-0.234-0.334-0.244
	c-0.713-0.046-1.435-0.02-2.153,0.074c-0.004-0.006-0.008-0.011-0.011-0.017c-0.108-0.186-0.22-0.37-0.337-0.509
	c-0.111-0.164-0.242-0.328-0.393-0.496c0.314-0.583,0.584-1.195,0.83-1.902c0.055-0.151,0.008-0.32-0.114-0.424
	c-0.402-0.344-0.752-0.6-1.099-0.812c-0.125-0.077-0.285-0.074-0.41,0.005c-0.614,0.389-1.183,0.833-1.691,1.316
	c-0.145-0.059-0.289-0.112-0.43-0.162l-0.18-0.065c-0.184-0.055-0.386-0.114-0.598-0.164c-0.098-0.699-0.25-1.396-0.449-2.03
	c-0.048-0.151-0.185-0.259-0.341-0.271c-0.452-0.031-0.907-0.043-1.36-0.005C9.245,0.921,9.117,1.015,9.064,1.151
	C8.809,1.781,8.606,2.49,8.469,3.215C8.252,3.266,8.038,3.328,7.835,3.39L7.674,3.447C7.538,3.497,7.401,3.545,7.26,3.603
	c-0.476-0.5-0.997-0.963-1.552-1.374C5.585,2.137,5.419,2.127,5.285,2.203C4.906,2.418,4.566,2.681,4.238,2.936l-0.065,0.05
	C4.049,3.083,3.996,3.244,4.038,3.395c0.206,0.763,0.441,1.412,0.736,2.02C4.62,5.585,4.492,5.747,4.39,5.894
	C4.254,6.06,4.144,6.243,4.036,6.427C4.035,6.431,4.033,6.432,4.031,6.435C3.36,6.312,2.664,6.244,1.959,6.23
	C1.79,6.22,1.645,6.329,1.588,6.481L1.553,6.568C1.408,6.954,1.257,7.353,1.164,7.775C1.133,7.917,1.183,8.064,1.293,8.159
	c0.536,0.446,1.134,0.85,1.782,1.199C3.064,9.468,3.06,9.576,3.057,9.683C3.053,9.779,3.05,9.874,3.043,10.028
	c0.007,0.095,0.01,0.189,0.014,0.285c0.003,0.105,0.008,0.208,0.016,0.313c-0.649,0.313-1.265,0.672-1.792,1.048
	c-0.128,0.092-0.188,0.251-0.153,0.403c0.095,0.428,0.229,0.854,0.409,1.305c0.056,0.14,0.187,0.234,0.337,0.245
	c0.713,0.046,1.436,0.018,2.152-0.076c0.003,0.008,0.007,0.014,0.011,0.021c0.108,0.184,0.219,0.365,0.336,0.507
	c0.113,0.164,0.242,0.328,0.391,0.496c-0.314,0.577-0.581,1.188-0.829,1.901C3.881,16.628,3.927,16.796,4.05,16.9
	c0.407,0.347,0.756,0.604,1.097,0.812c0.126,0.074,0.283,0.074,0.41-0.006c0.614-0.392,1.184-0.834,1.692-1.317
	c0.145,0.062,0.289,0.112,0.429,0.163l0.181,0.065c0.19,0.057,0.389,0.113,0.595,0.162c0.097,0.695,0.25,1.391,0.449,2.029
	c0.047,0.15,0.183,0.26,0.341,0.271c0.26,0.021,0.519,0.032,0.779,0.032c0.194,0,0.39-0.008,0.583-0.023
	c0.146-0.012,0.273-0.104,0.328-0.242c0.256-0.631,0.459-1.339,0.599-2.062c0.212-0.049,0.421-0.108,0.631-0.174l0.155-0.058
	c0.138-0.05,0.279-0.098,0.418-0.157c0.479,0.504,1,0.965,1.554,1.375c0.125,0.092,0.292,0.103,0.425,0.025
	c0.385-0.22,0.727-0.484,1.11-0.784c0.124-0.097,0.18-0.257,0.137-0.409c-0.208-0.762-0.444-1.41-0.733-2.018
	c0.149-0.171,0.277-0.332,0.381-0.48c0.138-0.166,0.248-0.351,0.355-0.535c0.001,0,0.002-0.002,0.003-0.006
	c0.673,0.123,1.369,0.19,2.073,0.205c0.003,0,0.003,0,0.006,0c0.163,0,0.333-0.162,0.391-0.313c0.148-0.392,0.304-0.8,0.398-1.229
	c0.031-0.143-0.02-0.291-0.13-0.384C18.169,11.395,17.57,10.989,16.926,10.641z M10.001,13.738c-2.062,0-3.739-1.678-3.739-3.737
	c0-2.062,1.677-3.738,3.739-3.738c2.06,0,3.735,1.676,3.735,3.738C13.736,12.061,12.061,13.738,10.001,13.738z"/>
</svg>
