<?xml version="1.0" encoding="utf-8"?>
<!-- Generator: Adobe Illustrator 16.0.4, SVG Export Plug-In . SVG Version: 6.00 Build 0)  -->
<!DOCTYPE svg PUBLIC "-//W3C//DTD SVG 1.1//EN" "http://www.w3.org/Graphics/SVG/1.1/DTD/svg11.dtd">
<svg version="1.1" id="Layer_1" xmlns="http://www.w3.org/2000/svg" xmlns:xlink="http://www.w3.org/1999/xlink" x="0px" y="0px"
	 width="20px" height="20px" viewBox="0 0 20 20" enable-background="new 0 0 20 20" xml:space="preserve">
<path fill="#FFFFFF" d="M15.892,1.343H4.11c-0.713,0-1.291,0.468-1.291,1.041v15.231c0,0.572,0.576,1.041,1.291,1.041H15.89
	c0.713,0,1.291-0.469,1.291-1.041v-5.566V2.384C17.181,1.809,16.601,1.343,15.892,1.343z M15.335,17.348H4.665
	c-0.479,0-0.65-0.25-0.65-0.602V3.255c0-0.356,0.172-0.604,0.65-0.604h7.092c2.11,0.486,3.592,1.842,4.229,3.916v10.179
	C15.983,17.098,15.813,17.348,15.335,17.348z"/>
</svg>
