<?xml version="1.0" encoding="utf-8"?>
<!-- Generator: Adobe Illustrator 16.0.4, SVG Export Plug-In . SVG Version: 6.00 Build 0)  -->
<!DOCTYPE svg PUBLIC "-//W3C//DTD SVG 1.1//EN" "http://www.w3.org/Graphics/SVG/1.1/DTD/svg11.dtd">
<svg version="1.1" id="Layer_1" xmlns="http://www.w3.org/2000/svg" xmlns:xlink="http://www.w3.org/1999/xlink" x="0px" y="0px"
	 width="20px" height="20px" viewBox="0 0 20 20" enable-background="new 0 0 20 20" xml:space="preserve">
<g>
	<g>
		<path fill="#FFFFFF" d="M16.695,15.619c-0.178-1.174-0.707-4.377-1.414-5.806c-0.395-0.896-1.59-1.634-3.17-1.993
			c1.064-0.656,1.781-1.827,1.796-3.171c0.022-2.085-1.649-3.797-3.739-3.822C8.083,0.805,6.37,2.478,6.347,4.565
			c-0.014,1.343,0.678,2.53,1.725,3.211C6.484,8.1,5.269,8.813,4.858,9.702c-0.74,1.413-1.34,4.601-1.543,5.771
			c-0.047,0.146-0.073,0.291-0.076,0.443c-0.019,1.756,2.991,3.215,6.728,3.256c3.733,0.043,6.777-1.352,6.795-3.107
			C16.766,15.916,16.742,15.768,16.695,15.619z"/>
	</g>
	<defs>
		<filter id="Adobe_OpacityMaskFilter" filterUnits="userSpaceOnUse" x="3.239" y="0.827" width="13.523" height="18.346">
			<feColorMatrix  type="matrix" values="1 0 0 0 0  0 1 0 0 0  0 0 1 0 0  0 0 0 1 0"/>
		</filter>
	</defs>
	<mask maskUnits="userSpaceOnUse" x="3.239" y="0.827" width="13.523" height="18.346" id="SVGID_2_">
		<g filter="url(#Adobe_OpacityMaskFilter)">
		</g>
	</mask>
	<g mask="url(#SVGID_2_)">
		<path fill="#FFFFFF" d="M16.695,15.619c-0.178-1.174-0.707-4.377-1.414-5.806c-0.395-0.896-1.59-1.634-3.17-1.993
			c1.064-0.656,1.781-1.827,1.796-3.171c0.022-2.085-1.649-3.797-3.739-3.822C8.083,0.805,6.37,2.478,6.347,4.565
			c-0.014,1.343,0.678,2.53,1.725,3.211C6.484,8.1,5.269,8.813,4.858,9.702c-0.74,1.413-1.34,4.601-1.543,5.771
			c-0.047,0.146-0.073,0.291-0.076,0.443c-0.019,1.756,2.991,3.215,6.728,3.256c3.733,0.043,6.777-1.352,6.795-3.107
			C16.766,15.916,16.742,15.768,16.695,15.619z"/>
	</g>
</g>
</svg>
