<?xml version="1.0" encoding="utf-8"?>
<!-- Generator: Adobe Illustrator 18.0.0, SVG Export Plug-In . SVG Version: 6.00 Build 0)  -->
<!DOCTYPE svg PUBLIC "-//W3C//DTD SVG 1.1//EN" "http://www.w3.org/Graphics/SVG/1.1/DTD/svg11.dtd">
<svg version="1.1" id="Layer_1" xmlns="http://www.w3.org/2000/svg" xmlns:xlink="http://www.w3.org/1999/xlink" x="20px" y="20px"
	 viewBox="0 0 20 20" enable-background="new 0 0 20 20" xml:space="preserve">
<polygon fill="#FFFFFF" points="5.3,3.8 9.3,3.8 7.3,6 5.3,8.1 3.4,6 1.4,3.8 "/>
<path fill="#FFFFFF" d="M15.8,14.2c-0.4,0-0.8-0.3-0.8-0.8V6.8h-4.3c-0.4,0-0.8-0.3-0.8-0.8c0-0.4,0.3-0.8,0.8-0.8h5.8v8.2
	C16.6,13.9,16.3,14.2,15.8,14.2z"/>
<polygon fill="#FFFFFF" points="15.8,15.5 15.1,14.8 15.1,14.8 13.1,12.7 13.8,12 15.8,14 17.9,12 18.6,12.7 16.6,14.8 16.6,14.8 
	15.9,15.5 15.8,15.5 "/>
<polygon fill="#FFFFFF" points="5.3,11.2 9.3,11.2 7.3,13.4 5.3,15.5 3.4,13.4 1.4,11.2 "/>
</svg>
