<?xml version="1.0" encoding="utf-8"?>
<!-- Generator: Adobe Illustrator 16.0.4, SVG Export Plug-In . SVG Version: 6.00 Build 0)  -->
<!DOCTYPE svg PUBLIC "-//W3C//DTD SVG 1.1//EN" "http://www.w3.org/Graphics/SVG/1.1/DTD/svg11.dtd">
<svg version="1.1" id="Layer_1" xmlns="http://www.w3.org/2000/svg" xmlns:xlink="http://www.w3.org/1999/xlink" x="0px" y="0px"
	 width="20px" height="20px" viewBox="0 0 20 20" enable-background="new 0 0 20 20" xml:space="preserve">
<g>
	<path d="M10.001,6.206c-0.192,0-0.38,0.021-0.562,0.056c0.338,0.32,0.551,0.769,0.551,1.269c0,0.967-0.783,1.75-1.751,1.75
		c-0.428,0-0.817-0.159-1.121-0.416C7.109,8.948,7.093,9.029,7.093,9.114c0,1.604,1.302,2.907,2.908,2.907
		c1.604,0,2.907-1.303,2.907-2.907C12.908,7.507,11.605,6.206,10.001,6.206z"/>
	<path d="M18.282,8.325c-0.641-1.026-3.06-4.255-8.281-4.255c-5.223,0-7.643,3.229-8.283,4.255C1.599,8.498,1.361,8.929,1.366,9.111
		C1.361,9.296,1.599,9.728,1.718,9.9c0.64,1.029,3.06,4.255,8.283,4.255c5.222,0,7.641-3.227,8.281-4.255
		c0.119-0.172,0.354-0.604,0.352-0.789C18.637,8.929,18.401,8.498,18.282,8.325z M10.001,13.116c-2.213,0-4.004-1.793-4.004-4.002
		c0-2.212,1.791-4.005,4.004-4.005c2.211,0,4.003,1.793,4.003,4.005C14.004,11.323,12.212,13.116,10.001,13.116z"/>
</g>
</svg>
