<?xml version="1.0" encoding="utf-8"?>
<!-- Generator: Adobe Illustrator 16.0.4, SVG Export Plug-In . SVG Version: 6.00 Build 0)  -->
<!DOCTYPE svg PUBLIC "-//W3C//DTD SVG 1.1//EN" "http://www.w3.org/Graphics/SVG/1.1/DTD/svg11.dtd">
<svg version="1.1" id="Layer_1" xmlns="http://www.w3.org/2000/svg" xmlns:xlink="http://www.w3.org/1999/xlink" x="0px" y="0px"
	 width="20px" height="20px" viewBox="0 0 20 20" enable-background="new 0 0 20 20" xml:space="preserve">
<path fill="#FFFFFF" d="M10,0.621C4.82,0.621,0.621,4.82,0.621,10S4.82,19.379,10,19.379S19.379,15.18,19.379,10
	S15.18,0.621,10,0.621z M12.24,16.264c-0.16,0.131-0.852,0.621-2.274,0.691l-0.078,0.002c-0.169,0-0.342-0.023-0.521-0.051
	c-0.969-0.143-1.7-0.924-1.973-1.598c-0.298-0.677-0.159-1.648,0.104-2.312C8.75,9.94,8.763,9.909,8.766,9.901l0.146-0.423
	L7.511,9.47c0.076-0.598,0.347-1.816,1.342-1.816C8.82,7.626,9.947,7.665,9.947,7.665c0.338,0.001,1.149,0.081,1.604,0.762
	c0.4,0.597,0.383,1.438-0.057,2.501l-1.175,2.846c-0.082,0.224-0.118,0.369-0.135,0.459l-0.039,0.379h0.38
	c0.262,0,0.664-0.081,0.949-0.233c0.118,0.008,0.416,0.08,0.705,0.563C12.512,15.502,12.309,16.094,12.24,16.264z M12.755,4.613
	c-0.153,0.941-1.001,1.756-1.929,1.856c-0.452,0.05-0.852-0.085-1.13-0.377C9.408,5.792,9.29,5.363,9.365,4.89
	c0.154-0.93,1-1.737,1.927-1.838c0.442-0.046,0.856,0.092,1.132,0.382C12.707,3.727,12.824,4.146,12.755,4.613z"/>
</svg>
