<?xml version="1.0" encoding="utf-8"?>
<!-- Generator: Adobe Illustrator 16.0.4, SVG Export Plug-In . SVG Version: 6.00 Build 0)  -->
<!DOCTYPE svg PUBLIC "-//W3C//DTD SVG 1.1//EN" "http://www.w3.org/Graphics/SVG/1.1/DTD/svg11.dtd">
<svg version="1.1" id="Layer_1" xmlns="http://www.w3.org/2000/svg" xmlns:xlink="http://www.w3.org/1999/xlink" x="0px" y="0px"
	 width="20px" height="20px" viewBox="0 0 20 20" enable-background="new 0 0 20 20" xml:space="preserve">
<path fill="#FFFFFF" d="M10.002,0.537c-5.123,0-9.277,4.151-9.277,9.275c0,5.124,4.154,9.277,9.277,9.277
	c5.122,0,9.275-4.153,9.275-9.277C19.277,4.688,15.124,0.537,10.002,0.537z M10.908,14.057c0,0.696-0.381,1.043-1.12,1.043H9.491
	c-0.722,0-1.084-0.347-1.084-1.043v-0.224c0-0.698,0.362-1.047,1.084-1.047h0.297c0.759,0,1.12,0.349,1.12,1.047V14.057z
	 M10.578,11.473c-0.081,0.283-0.411,0.426-0.938,0.426c-0.593,0-1.003-0.254-0.987-0.776c0.067-2.646,2.865-2.252,2.865-3.6
	c0-0.713-0.561-1.157-1.532-1.157c-1.383,0-2.008,0.92-2.139,1.825C7.831,8.219,6.266,8.269,6.266,7.078
	c0-1.127,1.251-2.554,3.752-2.554c2.321,0,3.718,1.141,3.718,2.839C13.738,9.98,10.727,9.632,10.578,11.473z"/>
</svg>
