<?xml version="1.0" encoding="utf-8"?>
<!-- Generator: Adobe Illustrator 16.0.4, SVG Export Plug-In . SVG Version: 6.00 Build 0)  -->
<!DOCTYPE svg PUBLIC "-//W3C//DTD SVG 1.1//EN" "http://www.w3.org/Graphics/SVG/1.1/DTD/svg11.dtd">
<svg version="1.1" id="Layer_1" xmlns="http://www.w3.org/2000/svg" xmlns:xlink="http://www.w3.org/1999/xlink" x="0px" y="0px"
	 width="20px" height="20px" viewBox="0 0 20 20" enable-background="new 0 0 20 20" xml:space="preserve">
<path fill="#FFFFFF" d="M10.044,0.69c-5.065,0-9.171,4.106-9.171,9.171s4.106,9.171,9.171,9.171c5.063,0,9.17-4.106,9.17-9.171
	S15.109,0.69,10.044,0.69z M15.617,10.807H10.99v4.627c0,0.522-0.424,0.946-0.946,0.946c-0.523,0-0.946-0.424-0.946-0.946v-4.627
	H4.473c-0.523,0-0.947-0.422-0.947-0.945S3.95,8.915,4.473,8.915h4.625V4.29c0-0.523,0.424-0.947,0.946-0.947
	c0.522,0,0.946,0.424,0.946,0.947v4.625h4.627c0.521,0,0.945,0.424,0.945,0.947S16.141,10.807,15.617,10.807z"/>
</svg>
