<?xml version="1.0" encoding="utf-8"?>
<!-- Generator: Adobe Illustrator 16.0.4, SVG Export Plug-In . SVG Version: 6.00 Build 0)  -->
<!DOCTYPE svg PUBLIC "-//W3C//DTD SVG 1.1//EN" "http://www.w3.org/Graphics/SVG/1.1/DTD/svg11.dtd">
<svg version="1.1" id="Layer_1" xmlns="http://www.w3.org/2000/svg" xmlns:xlink="http://www.w3.org/1999/xlink" x="0px" y="0px"
	 width="20px" height="20px" viewBox="0 0 20 20" enable-background="new 0 0 20 20" xml:space="preserve">
<g>
	<path fill="#FFFFFF" d="M18.787,13.215V3.581c0-1.217-1.107-2.202-2.479-2.202H3.111c-1.369,0-2.478,0.985-2.478,2.202v12.838
		c0,1.215,1.108,2.202,2.478,2.202h9.296L12.391,6.998L18.787,13.215z M4.713,16.273H3.319V3.727h1.394V16.273L4.713,16.273z"/>
	<polygon fill="#FFFFFF" points="14.215,18.49 15.706,18.49 15.291,17.549 	"/>
	<path fill="#FFFFFF" d="M17.838,16.244l0.373,0.846c0.189-0.271,0.311-0.566,0.357-0.896L17.838,16.244z"/>
	<polygon fill="#FFFFFF" points="16.561,15.66 17.891,15.566 19.338,15.466 19.365,15.454 16.447,12.618 13.525,9.78 13.529,13.854 
		13.537,17.924 13.572,17.909 14.648,16.938 15.617,16.068 16.744,18.621 17.686,18.208 	"/>
</g>
</svg>
