<?xml version="1.0" encoding="utf-8"?>
<!-- Generator: Adobe Illustrator 16.0.4, SVG Export Plug-In . SVG Version: 6.00 Build 0)  -->
<!DOCTYPE svg PUBLIC "-//W3C//DTD SVG 1.1//EN" "http://www.w3.org/Graphics/SVG/1.1/DTD/svg11.dtd">
<svg version="1.1" id="Layer_1" xmlns="http://www.w3.org/2000/svg" xmlns:xlink="http://www.w3.org/1999/xlink" x="0px" y="0px"
	 width="20px" height="20px" viewBox="0 0 20 20" enable-background="new 0 0 20 20" xml:space="preserve">
<g>
	<path fill="#FFFFFF" d="M7.169,16.199v-2.527V8.369l0.747,0.699c0.243,0.23,0.555,0.343,0.866,0.343c0.338,0,0.674-0.136,0.923-0.4
		c0.229-0.245,0.343-0.554,0.343-0.865c0-0.339-0.135-0.677-0.401-0.925L6.36,4.144C6.117,3.917,5.806,3.803,5.495,3.801
		c-0.311,0-0.621,0.115-0.864,0.342L1.337,7.221C1.069,7.469,0.935,7.807,0.935,8.146c0,0.312,0.11,0.62,0.34,0.865
		c0.25,0.264,0.587,0.402,0.927,0.402c0.309,0,0.619-0.115,0.862-0.341l0.748-0.7v5.3v2.527H7.169L7.169,16.199z"/>
</g>
<g>
	<path fill="#FFFFFF" d="M12.83,3.801v2.526v5.304l-0.746-0.699c-0.244-0.229-0.555-0.343-0.866-0.343
		c-0.338,0-0.675,0.136-0.924,0.4c-0.228,0.245-0.342,0.554-0.342,0.864c0,0.338,0.135,0.678,0.401,0.924l3.286,3.078
		c0.243,0.229,0.555,0.342,0.865,0.344c0.312,0,0.621-0.115,0.864-0.342l3.294-3.08c0.268-0.246,0.4-0.584,0.4-0.924
		c0-0.312-0.109-0.619-0.34-0.864c-0.25-0.265-0.588-0.402-0.928-0.402c-0.309,0-0.619,0.115-0.861,0.341l-0.748,0.7V6.327V3.801
		H12.83z"/>
</g>
</svg>
