<?xml version="1.0" encoding="utf-8"?>
<!-- Generator: Adobe Illustrator 16.0.4, SVG Export Plug-In . SVG Version: 6.00 Build 0)  -->
<!DOCTYPE svg PUBLIC "-//W3C//DTD SVG 1.1//EN" "http://www.w3.org/Graphics/SVG/1.1/DTD/svg11.dtd">
<svg version="1.1" id="Layer_1" xmlns="http://www.w3.org/2000/svg" xmlns:xlink="http://www.w3.org/1999/xlink" x="0px" y="0px"
	 width="20px" height="20px" viewBox="0 0 20 20" enable-background="new 0 0 20 20" xml:space="preserve">
<g>
	<path fill="#FFFFFF" d="M18.111,2.259v11.873c0,0.556-0.448,1.003-1.004,1.003h-2.523c-0.4,0.026-0.811,0.262-0.811,0.756
		c0,0,0.039,2.109,0.024,2.172c0,0.444-0.362,0.808-0.81,0.808c-0.282,0-0.535-0.147-0.68-0.373V18.5
		c-0.039-0.088-2.229-2.585-2.229-2.585c-0.516-0.642-0.918-0.748-1.446-0.78H2.892c-0.555,0-1.003-0.447-1.003-1.003V2.259
		c0-0.555,0.448-1.003,1.002-1.003h14.214C17.662,1.255,18.111,1.704,18.111,2.259z M16.311,11.131c0-0.381-0.269-0.688-0.6-0.688
		H4.289c-0.329,0-0.597,0.307-0.597,0.688c0,0.379,0.267,0.688,0.597,0.688h11.422C16.042,11.818,16.311,11.51,16.311,11.131z
		 M16.311,8.196c0-0.381-0.269-0.688-0.6-0.688H4.289c-0.329,0-0.597,0.308-0.597,0.688c0,0.379,0.267,0.688,0.597,0.688h11.422
		C16.042,8.885,16.311,8.575,16.311,8.196z M16.311,5.261c0-0.381-0.269-0.688-0.6-0.688H4.289c-0.329,0-0.597,0.308-0.597,0.688
		c0,0.379,0.267,0.688,0.597,0.688h11.422C16.042,5.949,16.311,5.641,16.311,5.261z"/>
</g>
</svg>
