<?xml version="1.0" encoding="utf-8"?>
<!-- Generator: Adobe Illustrator 16.0.4, SVG Export Plug-In . SVG Version: 6.00 Build 0)  -->
<!DOCTYPE svg PUBLIC "-//W3C//DTD SVG 1.1//EN" "http://www.w3.org/Graphics/SVG/1.1/DTD/svg11.dtd">
<svg version="1.1" id="Layer_1" xmlns="http://www.w3.org/2000/svg" xmlns:xlink="http://www.w3.org/1999/xlink" x="0px" y="0px"
	 width="20px" height="20px" viewBox="90 90 20 20" enable-background="new 90 90 20 20" xml:space="preserve">
<g>
	<path d="M106.083,92.95h-3.645v-0.56h-0.002c0-0.867-1.044-0.974-2.331-0.974c-1.285,0-2.329,0.107-2.329,0.974v0.56h-3.645
		c-0.326,0-0.588,0.272-0.588,0.609v0.875c0,0.338,0.262,0.612,0.586,0.612h11.953c0.324,0,0.586-0.273,0.586-0.612V93.56
		C106.669,93.223,106.407,92.95,106.083,92.95z"/>
	<path d="M105.915,96.049H94.301c0,0,0.002,10.362,0,10.416c-0.086,2.032,1.742,2.507,3.891,2.507c0.833,0,3.001,0,3.833,0
		c2.149,0,3.867-0.157,3.89-2.507C105.917,106.411,105.915,96.049,105.915,96.049z M97.782,105.974c0,0.468-0.381,0.849-0.85,0.849
		c-0.47,0-0.85-0.383-0.85-0.85l0.01-6.95c0-0.469,0.38-0.85,0.849-0.85c0.469,0.002,0.85,0.384,0.85,0.85L97.782,105.974z
		 M101.014,105.974c0,0.468-0.381,0.849-0.848,0.849c-0.469,0-0.85-0.383-0.85-0.85l0.008-6.95c0-0.469,0.381-0.85,0.85-0.85
		c0.468,0.002,0.848,0.384,0.848,0.85L101.014,105.974z M104.246,106.083c0,0.469-0.379,0.85-0.846,0.85
		c-0.472,0-0.853-0.381-0.853-0.851l0.009-6.95c0-0.467,0.381-0.847,0.85-0.847s0.849,0.381,0.849,0.848L104.246,106.083z"/>
</g>
</svg>
