<?xml version="1.0" encoding="utf-8"?>
<!-- Generator: Adobe Illustrator 16.0.4, SVG Export Plug-In . SVG Version: 6.00 Build 0)  -->
<!DOCTYPE svg PUBLIC "-//W3C//DTD SVG 1.1//EN" "http://www.w3.org/Graphics/SVG/1.1/DTD/svg11.dtd">
<svg version="1.1" id="Layer_1" xmlns="http://www.w3.org/2000/svg" xmlns:xlink="http://www.w3.org/1999/xlink" x="0px" y="0px"
	 width="20px" height="20px" viewBox="0 0 20 20" enable-background="new 0 0 20 20" xml:space="preserve">
<g>
	<g>
		<path fill="#FFFFFF" d="M18.591,7.439H4.374c-0.344,0-0.669,0.279-0.729,0.62l-1.878,7.962c-0.06,0.347,0.17,0.623,0.515,0.623
			h14.329c0.343,0,0.668-0.276,0.729-0.619l1.724-7.966C19.145,7.718,18.934,7.439,18.591,7.439z"/>
	</g>
	<g>
		<g>
			<path fill="#FFFFFF" d="M3.536,6.196h13.332V5.789c0-0.341-0.279-0.618-0.622-0.618H10.02L8.227,3.504
				c-0.104-0.096-0.241-0.15-0.384-0.15h-5.01c-1.057,0-1.913,0.856-1.913,1.912v8.494l1.49-6.62C2.508,6.61,3,6.196,3.536,6.196z"
				/>
		</g>
	</g>
</g>
</svg>
