<?xml version="1.0" encoding="utf-8"?>
<!-- Generator: Adobe Illustrator 16.0.4, SVG Export Plug-In . SVG Version: 6.00 Build 0)  -->
<!DOCTYPE svg PUBLIC "-//W3C//DTD SVG 1.1//EN" "http://www.w3.org/Graphics/SVG/1.1/DTD/svg11.dtd">
<svg version="1.1" id="Layer_1" xmlns="http://www.w3.org/2000/svg" xmlns:xlink="http://www.w3.org/1999/xlink" x="0px" y="0px"
	 width="20px" height="20px" viewBox="0 0 20 20" enable-background="new 0 0 20 20" xml:space="preserve">
<path fill="#FFFFFF" d="M10,0.774c-5.095,0-9.226,4.131-9.226,9.227c0,5.095,4.131,9.226,9.226,9.226
	c5.098,0,9.227-4.131,9.227-9.226C19.227,4.905,15.098,0.774,10,0.774z M10,16.859c-3.787,0-6.857-3.072-6.857-6.859
	c0-3.788,3.07-6.858,6.857-6.858c3.788,0,6.859,3.07,6.859,6.858C16.859,13.787,13.788,16.859,10,16.859z"/>
<path fill="#FFFFFF" d="M13.016,11.791l-2.463-1.844V5.795c0-0.43-0.349-0.779-0.779-0.779c-0.429,0-0.778,0.349-0.778,0.779v4.544
	c0,0.269,0.136,0.505,0.343,0.646l2.741,2.054c0.343,0.258,0.83,0.188,1.088-0.158C13.428,12.537,13.357,12.049,13.016,11.791z"/>
</svg>
