<?xml version="1.0" encoding="utf-8"?>
<!-- Generator: Adobe Illustrator 16.0.4, SVG Export Plug-In . SVG Version: 6.00 Build 0)  -->
<!DOCTYPE svg PUBLIC "-//W3C//DTD SVG 1.1//EN" "http://www.w3.org/Graphics/SVG/1.1/DTD/svg11.dtd">
<svg version="1.1" id="Layer_1" xmlns="http://www.w3.org/2000/svg" xmlns:xlink="http://www.w3.org/1999/xlink" x="0px" y="0px"
	 width="20px" height="20px" viewBox="90 90 20 20" enable-background="new 90 90 20 20" xml:space="preserve">
<path fill="#010101" d="M106.917,93.28c0-0.336-0.327-0.609-0.735-0.609l-9.514-1.455c-0.959-0.217-2.017,0.208-2.448,0.442
	c-0.915,0.497-1.14,1.008-1.14,1.66c0,0.1,0.007,0.083,0.007,0.175c0.011,0.088,0.007,0.064,0.007,0.13l0.001,13.18
	c0,0.339,0.329,0.61,0.736,0.61l9.686,1.429c0.409,0,0.739-0.271,0.739-0.61v-0.252c0-0.583,0.359-1.269,1.509-1.51v0.535
	l0.578-0.002c0.342-0.074,0.501-0.208,0.576-0.547L106.917,93.28z M105.77,100.629v4.673c-0.421,0.076-1.513,0.851-1.513,1.441
	V95.057c0-0.339-0.33-0.609-0.739-0.609l-8.938-1.407c-0.574-0.103-0.399-0.54-0.001-0.829c0.492-0.36,1.322-0.403,2.14-0.234
	l8.317,1.369c0.409,0,0.734,0.274,0.734,0.609V100.629L105.77,100.629z"/>
</svg>
