<?xml version="1.0" encoding="utf-8"?>
<!-- Generator: Adobe Illustrator 16.0.4, SVG Export Plug-In . SVG Version: 6.00 Build 0)  -->
<!DOCTYPE svg PUBLIC "-//W3C//DTD SVG 1.1//EN" "http://www.w3.org/Graphics/SVG/1.1/DTD/svg11.dtd">
<svg version="1.1" id="Layer_1" xmlns="http://www.w3.org/2000/svg" xmlns:xlink="http://www.w3.org/1999/xlink" x="0px" y="0px"
	 width="200px" height="200px" viewBox="0 0 200 200" enable-background="new 0 0 200 200" xml:space="preserve">
<path d="M123.746,103.085l52.148-52.148c6.556-6.557,6.556-17.188,0-23.744c-6.559-6.557-17.187-6.557-23.745,0L99.998,79.339
	L47.851,27.191c-6.554-6.557-17.186-6.557-23.745,0c-6.559,6.557-6.559,17.187,0,23.744l52.151,52.149l-52.151,52.147
	c-6.559,6.559-6.559,17.188,0,23.747c3.281,3.277,7.576,4.917,11.874,4.917s8.595-1.64,11.874-4.917l52.148-52.152l52.147,52.152
	c3.279,3.277,7.575,4.917,11.876,4.917c4.296,0,8.592-1.64,11.871-4.917c6.557-6.559,6.557-17.188,0-23.747L123.746,103.085z"/>
</svg>
