<?xml version="1.0" encoding="utf-8"?>
<!-- Generator: Adobe Illustrator 16.0.4, SVG Export Plug-In . SVG Version: 6.00 Build 0)  -->
<!DOCTYPE svg PUBLIC "-//W3C//DTD SVG 1.1//EN" "http://www.w3.org/Graphics/SVG/1.1/DTD/svg11.dtd">
<svg version="1.1" id="Layer_1" xmlns="http://www.w3.org/2000/svg" xmlns:xlink="http://www.w3.org/1999/xlink" x="0px" y="0px"
	 width="20px" height="20px" viewBox="90 90 20 20" enable-background="new 90 90 20 20" xml:space="preserve">
<g>
	<path d="M100.224,108.697c-4.747,0-8.608-3.862-8.608-8.608c0-4.747,3.861-8.608,8.608-8.608s8.607,3.862,8.607,8.608
		C108.831,104.835,104.971,108.697,100.224,108.697z M100.224,93.333c-3.726,0-6.757,3.03-6.757,6.756
		c0,3.725,3.031,6.755,6.757,6.755s6.756-3.03,6.756-6.755C106.98,96.363,103.95,93.333,100.224,93.333z"/>
	<g>
		<path d="M99.664,101.065c-0.403-0.232-0.606-0.668-0.58-1.101l-0.783,2.294l-0.949,2.806l1.953-2.222l1.6-1.824
			C100.542,101.256,100.068,101.298,99.664,101.065z"/>
		<path d="M100.782,99.116c0.403,0.232,0.61,0.668,0.582,1.106l0.783-2.305l0.949-2.803l-1.953,2.221l-1.602,1.824
			C99.904,98.925,100.38,98.881,100.782,99.116z"/>
	</g>
</g>
</svg>
