<?xml version="1.0" encoding="utf-8"?>
<!-- Generator: Adobe Illustrator 16.0.4, SVG Export Plug-In . SVG Version: 6.00 Build 0)  -->
<!DOCTYPE svg PUBLIC "-//W3C//DTD SVG 1.1//EN" "http://www.w3.org/Graphics/SVG/1.1/DTD/svg11.dtd">
<svg version="1.1" id="Layer_1" xmlns="http://www.w3.org/2000/svg" xmlns:xlink="http://www.w3.org/1999/xlink" x="0px" y="0px"
	 width="20px" height="20px" viewBox="90 90 20 20" enable-background="new 90 90 20 20" xml:space="preserve">
<g>
	<path fill="#231F20" d="M101.496,94.086c0.015,0.154-0.033,0.295-0.152,0.416c-0.065,0.068-0.146,0.119-0.208,0.156l-0.056,0.04
		c-2.869,1.892-3.087,1.697-3.285,1.525c-0.082-0.076-0.202-0.236-0.065-0.507l0.127-0.248c0.077-0.146,0.146-0.283,0.19-0.38
		c-0.088-0.138-1.244-0.429-2.864,0.066c-1.102,0.337-2.085,1.267-2.828,2.619c-0.087,0.162-0.296,0.197-0.477,0.095
		c-0.187-0.104-0.269-0.297-0.231-0.462c0.922-4.009,5.112-4.943,6.358-4.449c-0.065-0.137-0.176-0.334-0.279-0.525
		c-0.143-0.297-0.074-0.466,0.011-0.55l0,0c0.54-0.553,3.366,1.62,3.394,1.643C101.355,93.715,101.472,93.897,101.496,94.086z"/>
</g>
<g>
	<g>
		<path d="M108.332,101.039H97.493c-0.262,0-0.511,0.214-0.555,0.474l-1.432,6.07c-0.046,0.265,0.13,0.476,0.392,0.476h10.925
			c0.262,0,0.51-0.211,0.557-0.472l1.314-6.074C108.755,101.253,108.593,101.039,108.332,101.039z"/>
	</g>
	<g>
		<g>
			<path d="M96.853,100.093h10.166v-0.311c0-0.261-0.214-0.472-0.474-0.472h-4.748l-1.367-1.27c-0.08-0.074-0.183-0.116-0.292-0.116
				h-3.821c-0.806,0-1.459,0.654-1.459,1.458v6.477l1.136-5.047C96.07,100.407,96.445,100.093,96.853,100.093z"/>
		</g>
	</g>
</g>
</svg>
