<?xml version="1.0" encoding="utf-8"?>
<!-- Generator: Adobe Illustrator 16.0.4, SVG Export Plug-In . SVG Version: 6.00 Build 0)  -->
<!DOCTYPE svg PUBLIC "-//W3C//DTD SVG 1.1//EN" "http://www.w3.org/Graphics/SVG/1.1/DTD/svg11.dtd">
<svg version="1.1" id="Layer_1" xmlns="http://www.w3.org/2000/svg" xmlns:xlink="http://www.w3.org/1999/xlink" x="0px" y="0px"
	 width="20px" height="20px" viewBox="0 0 20 20" enable-background="new 0 0 20 20" xml:space="preserve">
<g>
	<path fill="#FFFFFF" d="M8.131,1.173c0.337,0,0.609,0.273,0.609,0.611v16.433c0,0.336-0.272,0.61-0.609,0.61H1.532
		c-0.336,0-0.61-0.274-0.61-0.61V1.784c0-0.338,0.274-0.611,0.61-0.611H8.131z"/>
	<path fill="#FFFFFF" d="M19.078,8.806h-7.79V1.875c0-0.387,0.31-0.702,0.688-0.702h6.412c0.381,0,0.688,0.314,0.688,0.702v6.454
		L19.078,8.806L19.078,8.806z"/>
	<path fill="#FFFFFF" d="M11.288,11.193h7.79v6.931c0,0.39-0.309,0.703-0.688,0.703h-6.414c-0.379,0-0.688-0.313-0.688-0.703v-6.453
		L11.288,11.193L11.288,11.193z"/>
</g>
</svg>
