<?xml version="1.0" encoding="utf-8"?>
<!-- Generator: Adobe Illustrator 16.0.4, SVG Export Plug-In . SVG Version: 6.00 Build 0)  -->
<!DOCTYPE svg PUBLIC "-//W3C//DTD SVG 1.1//EN" "http://www.w3.org/Graphics/SVG/1.1/DTD/svg11.dtd">
<svg version="1.1" id="Layer_1" xmlns="http://www.w3.org/2000/svg" xmlns:xlink="http://www.w3.org/1999/xlink" x="0px" y="0px"
	 width="200px" height="200px" viewBox="0 0 200 200" enable-background="new 0 0 200 200" xml:space="preserve">
<path d="M102.508,19.609c-43.28,0-78.498,35.216-78.498,78.498c0,43.292,35.218,78.5,78.498,78.5
	c43.287,0,78.503-35.208,78.503-78.5C181.013,54.828,145.795,19.609,102.508,19.609z M170.29,130.636
	c-0.79,1.566-1.624,2.96-2.337,4.003c-1.292,1.878-2.639,3.265-4.475,5.111c-15.806,15.872-51.982,33.256-104.603,11.249
	c-12.458-5.208-20.625-13.93-24.089-20.268c-1.082-2.241-2.061-4.541-2.923-6.911c0.834,1.686,1.788,3.277,2.853,4.795
	c17.684,25.279,58.291,23.724,66.241,22.838c53.396-5.996,69.897-25.221,74.799-36.382
	C174.495,120.514,172.649,125.723,170.29,130.636z M175.133,81.377c0,3.773-4.636,26.915-50.292,31.116
	c-6.468,0.589-80.366,1.436-94.366-28.383c-0.211-0.447-0.398-0.921-0.518-1.407c-0.162-0.649-0.221-1.12-0.239-1.637
	c-0.014-0.413,0.012-0.783,0.052-1.131c0.068-0.645,0.375-2.12,0.59-2.944c0.806-2.76,1.764-5.462,2.875-8.078
	c-0.115,0.89-0.157,1.878-0.125,3.093c0.04,1.652,0.38,3.47,1.016,5.243C40.1,94.001,76.987,108.58,121.71,96.217
	c18.96-5.246,47.305-15.305,47.305-30.705c0-0.524,0.153-1.489-0.525-3.418c2.45,4.467,4.443,9.211,5.96,14.164
	C175.133,78.673,175.133,79.805,175.133,81.377z M140.463,33.242c-0.031-0.018-0.06-0.038-0.094-0.059
	c2.885,1.73,4.805,3.062,4.805,5.246c0,7.658-18.479,14.671-42.615,15.295c-24.123,0.635-44.117-5.38-44.657-13.019
	c-0.176-2.484,1.828-4.449,5.258-6.626c11.459-7.069,24.932-11.147,39.35-11.147C116.346,22.932,129.316,26.694,140.463,33.242z
	 M52.899,41.68c-4.021,4.678-4.016,8.874-4.016,9.487c0,6.949,9.995,18.06,38.947,18.06c17.172,0,31.028-3.366,41.49-6.881
	c16.77-5.64,25.072-12.537,24.776-17.674c-0.024-0.444-0.107-0.957-0.307-1.486c3.112,2.907,5.983,6.083,8.569,9.479
	c-0.006-0.009-0.018-0.015-0.022-0.023c1.356,1.878,2.529,4.273,2.501,6.532c-0.077,7.552-7.313,19.155-40.145,21.897
	c-16.264,1.363-37.285-1.542-45.222-2.567C56.04,75.479,38.936,66.28,38.936,59.179c0-0.542,0.38-1.796,1.362-3.227
	C43.878,50.678,48.121,45.883,52.899,41.68z M27.425,94.415c1.488,11.572,11.931,24.299,29.812,30.008
	c21.789,6.939,35.171,7.16,66.861,0.022c48.497-10.946,52.43-32.118,52.75-37.572c0.555,3.665,0.848,7.418,0.848,11.23
	c0,1.245-0.035,2.476-0.095,3.696c-0.079,1.244-0.363,3.498-0.568,4.505c-0.153,0.755-0.289,1.292-0.505,1.861
	c-4.035,10.631-19.028,31.062-64.814,32.725c-14.697,0.527-40.562-4.6-56.857-11.327c-12.465-5.149-24.702-14.896-27.086-24.488
	c-0.111-0.458-0.197-1.322-0.256-1.877c-0.113-1.677-0.179-3.372-0.179-5.089C27.333,96.871,27.359,95.641,27.425,94.415z
	 M102.508,173.286c-19.021,0-36.406-7.102-49.66-18.79c15.852,10.862,36.391,12.308,46.467,12.308
	c33.476,0,52.595-12.51,62.477-22.511C148.016,161.932,126.566,173.286,102.508,173.286z"/>
</svg>
