<?xml version="1.0" encoding="utf-8"?>
<!-- Generator: Adobe Illustrator 16.0.4, SVG Export Plug-In . SVG Version: 6.00 Build 0)  -->
<!DOCTYPE svg PUBLIC "-//W3C//DTD SVG 1.1//EN" "http://www.w3.org/Graphics/SVG/1.1/DTD/svg11.dtd">
<svg version="1.1" id="Layer_1" xmlns="http://www.w3.org/2000/svg" xmlns:xlink="http://www.w3.org/1999/xlink" x="0px" y="0px"
	 width="20px" height="20px" viewBox="0 0 20 20" enable-background="new 0 0 20 20" xml:space="preserve">
<g>
	<g>
		<path fill="#FFFFFF" d="M8.229,9.608l-1.65,1.65l-3.465,3.465l-0.031-0.943c-0.009-0.31-0.139-0.586-0.342-0.79
			c-0.221-0.222-0.529-0.353-0.865-0.341c-0.309,0.01-0.586,0.138-0.789,0.34c-0.221,0.222-0.354,0.531-0.342,0.867l0.136,4.158
			c0.011,0.309,0.139,0.586,0.342,0.789c0.203,0.202,0.481,0.33,0.789,0.342l4.163,0.142c0.337,0.013,0.645-0.121,0.866-0.343
			c0.204-0.202,0.333-0.478,0.343-0.786c0.01-0.337-0.121-0.647-0.343-0.869c-0.202-0.202-0.48-0.33-0.786-0.341l-0.946-0.031
			l3.463-3.463l1.651-1.651L8.229,9.608z"/>
	</g>
	<g>
		<path fill="#FFFFFF" d="M11.766,10.655l1.648-1.65L16.88,5.54l0.03,0.943c0.011,0.31,0.141,0.587,0.343,0.791
			c0.222,0.221,0.529,0.352,0.866,0.341c0.309-0.01,0.585-0.138,0.787-0.34c0.222-0.222,0.355-0.532,0.343-0.869L19.113,2.25
			c-0.012-0.308-0.141-0.585-0.344-0.789s-0.48-0.332-0.787-0.343l-4.164-0.141c-0.336-0.013-0.646,0.121-0.866,0.343
			c-0.202,0.202-0.332,0.477-0.343,0.787c-0.01,0.336,0.121,0.646,0.343,0.869c0.202,0.201,0.479,0.33,0.788,0.341l0.943,0.031
			l-3.463,3.463L9.57,8.462L11.766,10.655z"/>
	</g>
</g>
</svg>
