<?xml version="1.0" encoding="utf-8"?>
<!-- Generator: Adobe Illustrator 16.0.4, SVG Export Plug-In . SVG Version: 6.00 Build 0)  -->
<!DOCTYPE svg PUBLIC "-//W3C//DTD SVG 1.1//EN" "http://www.w3.org/Graphics/SVG/1.1/DTD/svg11.dtd">
<svg version="1.1" id="Layer_1" xmlns="http://www.w3.org/2000/svg" xmlns:xlink="http://www.w3.org/1999/xlink" x="0px" y="0px"
	 width="20px" height="20px" viewBox="0 0 20 20" enable-background="new 0 0 20 20" xml:space="preserve">
<g>
	<path fill="#FFFFFF" d="M2.914,19.16l1.633-1.633l3.429-3.43l0.03,0.936c0.009,0.306,0.138,0.58,0.339,0.781
		c0.218,0.218,0.523,0.349,0.856,0.338c0.306-0.012,0.579-0.137,0.78-0.338c0.219-0.22,0.35-0.524,0.337-0.857l-0.134-4.113
		c-0.011-0.305-0.138-0.58-0.339-0.781c-0.201-0.2-0.476-0.327-0.78-0.338L4.947,9.586C4.613,9.573,4.309,9.705,4.09,9.923
		c-0.202,0.202-0.33,0.473-0.339,0.779c-0.01,0.334,0.12,0.641,0.339,0.86c0.2,0.198,0.475,0.324,0.778,0.336l0.936,0.031
		l-3.427,3.428L0.743,16.99L2.914,19.16z"/>
</g>
<g>
	<path fill="#FFFFFF" d="M16.882,1.046l-1.634,1.633L11.82,6.108l-0.03-0.935c-0.011-0.306-0.14-0.581-0.339-0.781
		c-0.219-0.219-0.524-0.349-0.855-0.338c-0.307,0.011-0.581,0.137-0.782,0.337C9.596,4.61,9.465,4.916,9.477,5.249l0.135,4.113
		c0.01,0.305,0.138,0.58,0.338,0.781c0.201,0.201,0.477,0.328,0.778,0.339l4.119,0.139c0.334,0.013,0.639-0.119,0.857-0.337
		c0.201-0.202,0.33-0.473,0.34-0.779c0.01-0.333-0.12-0.64-0.34-0.859c-0.199-0.2-0.477-0.327-0.777-0.338l-0.937-0.03l3.427-3.427
		l1.634-1.634L16.882,1.046z"/>
</g>
</svg>
