<?xml version="1.0" encoding="utf-8"?>
<!-- Generator: Adobe Illustrator 16.0.4, SVG Export Plug-In . SVG Version: 6.00 Build 0)  -->
<!DOCTYPE svg PUBLIC "-//W3C//DTD SVG 1.1//EN" "http://www.w3.org/Graphics/SVG/1.1/DTD/svg11.dtd">
<svg version="1.1" id="Layer_1" xmlns="http://www.w3.org/2000/svg" xmlns:xlink="http://www.w3.org/1999/xlink" x="0px" y="0px"
	 width="20px" height="20px" viewBox="90 90 20 20" enable-background="new 90 90 20 20" xml:space="preserve">
<path fill="#231F20" d="M106.301,91c0.533,0,1.074,0.331,1.568,0.824c0.811,0.811,1.182,1.755,0.371,2.565l-1.101,1.101
	l-10.601,10.598c-0.09,0.09-0.178,0.162-0.271,0.223c-0.035,0.025-0.068,0.045-0.102,0.062l-1.364,0.826
	c0,0-2.034,1.188-2.988,1.188c-0.166,0-0.302-0.035-0.385-0.119c-0.572-0.574,1.066-3.375,1.066-3.375l0.812-1.34
	c0.074-0.135,0.168-0.271,0.3-0.4l10.601-10.597l1.098-1.104C105.622,91.135,105.958,91,106.301,91"/>
</svg>
