<?xml version="1.0" encoding="utf-8"?>
<!-- Generator: Adobe Illustrator 16.0.4, SVG Export Plug-In . SVG Version: 6.00 Build 0)  -->
<!DOCTYPE svg PUBLIC "-//W3C//DTD SVG 1.1//EN" "http://www.w3.org/Graphics/SVG/1.1/DTD/svg11.dtd">
<svg version="1.1" id="Layer_1" xmlns="http://www.w3.org/2000/svg" xmlns:xlink="http://www.w3.org/1999/xlink" x="0px" y="0px"
	 width="20px" height="20px" viewBox="90 90 20 20" enable-background="new 90 90 20 20" xml:space="preserve">
<path d="M108.5,96.663c0,0.47-0.243,0.884-0.604,1.127l-7.076,4.883c-0.224,0.16-0.498,0.258-0.794,0.258
	c-0.27,0-0.574-0.125-0.784-0.258c-0.026-0.019-7.149-4.928-7.149-4.928h0.002c-0.328-0.248-0.533-0.64-0.533-1.083V94.73
	c0-0.515,0.417-0.925,0.931-0.925h15.081c0.514,0,0.928,0.42,0.928,0.936C108.5,94.741,108.5,96.615,108.5,96.663z"/>
<g>
	<path d="M101.209,103.694c-0.349,0.251-0.759,0.389-1.184,0.384c-0.449-0.005-0.936-0.207-1.154-0.384l-7.314-5.051v7.185
		c0,0.514,0.413,0.93,0.927,0.93h15.082c0.514,0,0.935-0.416,0.935-0.93v-7.185L101.209,103.694z"/>
</g>
</svg>
