<?xml version="1.0" encoding="utf-8"?>
<!-- Generator: Adobe Illustrator 16.0.4, SVG Export Plug-In . SVG Version: 6.00 Build 0)  -->
<!DOCTYPE svg PUBLIC "-//W3C//DTD SVG 1.1//EN" "http://www.w3.org/Graphics/SVG/1.1/DTD/svg11.dtd">
<svg version="1.1" id="Layer_1" xmlns="http://www.w3.org/2000/svg" xmlns:xlink="http://www.w3.org/1999/xlink" x="0px" y="0px"
	 width="20px" height="20px" viewBox="0 0 20 20" enable-background="new 0 0 20 20" xml:space="preserve">
<path fill="#FFFFFF" d="M16.009,1.17H3.992c-0.728,0-1.316,0.476-1.316,1.062v15.536c0,0.584,0.588,1.062,1.316,1.062h12.016
	c0.727,0,1.316-0.478,1.316-1.062V12.09V2.232C17.324,1.646,16.732,1.17,16.009,1.17z M15.441,17.496H4.559
	c-0.489,0-0.663-0.254-0.663-0.617V3.12c0-0.365,0.174-0.617,0.663-0.617h7.232C13.943,3,15.456,4.382,16.104,6.499v10.38
	C16.104,17.242,15.93,17.496,15.441,17.496z"/>
<g>
	<path fill="#FFFFFF" d="M7.031,8.58h5.938c0.262,0,0.473-0.21,0.473-0.471c0-0.259-0.213-0.47-0.473-0.47H7.031
		c-0.26,0-0.471,0.211-0.471,0.47C6.56,8.37,6.771,8.58,7.031,8.58z"/>
	<path fill="#FFFFFF" d="M12.969,9.528H7.031C6.771,9.528,6.56,9.739,6.56,10c0,0.257,0.212,0.47,0.471,0.47h5.938
		c0.262,0,0.473-0.213,0.473-0.47C13.439,9.739,13.229,9.528,12.969,9.528z"/>
	<path fill="#FFFFFF" d="M12.969,11.416H7.031c-0.26,0-0.471,0.213-0.471,0.473c0,0.262,0.212,0.471,0.471,0.471h5.938
		c0.262,0,0.473-0.209,0.473-0.471C13.439,11.629,13.229,11.416,12.969,11.416z"/>
</g>
</svg>
