<?xml version="1.0" encoding="utf-8"?>
<!-- Generator: Adobe Illustrator 16.0.4, SVG Export Plug-In . SVG Version: 6.00 Build 0)  -->
<!DOCTYPE svg PUBLIC "-//W3C//DTD SVG 1.1//EN" "http://www.w3.org/Graphics/SVG/1.1/DTD/svg11.dtd">
<svg version="1.1" id="Layer_1" xmlns="http://www.w3.org/2000/svg" xmlns:xlink="http://www.w3.org/1999/xlink" x="0px" y="0px"
	 width="792px" height="612px" viewBox="0 0 792 612" enable-background="new 0 0 792 612" xml:space="preserve">
<path d="M368.998,310.935c-14.886,0-26.999,12.112-26.999,26.999c0,14.889,12.113,27,26.999,27c14.889,0,27.002-12.111,27.002-27
	C396,323.047,383.887,310.935,368.998,310.935z M392.311,349.121c-0.27,0.539-0.557,1.018-0.803,1.377
	c-0.445,0.646-0.908,1.123-1.539,1.758c-5.436,5.459-17.879,11.438-35.978,3.869c-4.285-1.791-7.094-4.791-8.285-6.971
	c-0.373-0.771-0.709-1.562-1.006-2.377c0.287,0.58,0.615,1.127,0.982,1.65c6.082,8.695,20.048,8.16,22.782,7.855
	c18.365-2.061,24.041-8.674,25.727-12.512C393.758,345.641,393.123,347.432,392.311,349.121z M393.977,332.179
	c0,1.298-1.594,9.257-17.297,10.702c-2.225,0.203-27.642,0.494-32.458-9.762c-0.072-0.154-0.137-0.317-0.178-0.484
	c-0.055-0.223-0.076-0.385-0.082-0.564c-0.004-0.141,0.004-0.268,0.018-0.388c0.023-0.222,0.129-0.73,0.203-1.013
	c0.277-0.949,0.607-1.878,0.988-2.778c-0.039,0.305-0.053,0.645-0.043,1.064c0.014,0.568,0.131,1.193,0.35,1.803
	c2.055,5.762,14.742,10.776,30.124,6.524c6.523-1.803,16.27-5.263,16.27-10.56c0-0.18,0.053-0.512-0.18-1.176
	c0.842,1.537,1.529,3.168,2.049,4.872C393.977,331.249,393.977,331.639,393.977,332.179z M382.053,315.623
	c-0.01-0.006-0.021-0.013-0.033-0.019c0.992,0.594,1.654,1.052,1.654,1.803c0,2.634-6.357,5.046-14.658,5.261
	c-8.298,0.218-15.175-1.851-15.36-4.478c-0.061-0.854,0.629-1.53,1.809-2.279c3.941-2.431,8.575-3.834,13.534-3.834
	C373.758,312.077,378.219,313.371,382.053,315.623z M351.935,318.525c-1.383,1.61-1.381,3.052-1.381,3.263
	c0,2.39,3.438,6.212,13.396,6.212c5.906,0,10.672-1.158,14.27-2.367c5.768-1.941,8.623-4.312,8.521-6.079
	c-0.008-0.154-0.037-0.329-0.105-0.511c1.07,1,2.057,2.092,2.947,3.26c-0.002-0.003-0.006-0.005-0.008-0.008
	c0.467,0.646,0.871,1.47,0.861,2.247c-0.027,2.597-2.514,6.588-13.807,7.531c-5.594,0.469-12.824-0.53-15.554-0.883
	c-8.059-1.04-13.943-4.204-13.943-6.646c0-0.187,0.131-0.618,0.469-1.11C348.833,321.62,350.292,319.972,351.935,318.525z
	 M343.173,336.663c0.512,3.981,4.104,8.358,10.254,10.321c7.494,2.387,12.097,2.463,22.997,0.008
	c16.68-3.764,18.033-11.047,18.143-12.923c0.191,1.261,0.291,2.552,0.291,3.864c0,0.427-0.012,0.85-0.033,1.27
	c-0.027,0.428-0.125,1.203-0.195,1.549c-0.053,0.26-0.1,0.445-0.174,0.641c-1.387,3.656-6.545,10.682-22.293,11.254
	c-5.055,0.182-13.952-1.582-19.556-3.896c-4.287-1.771-8.496-5.123-9.316-8.422c-0.039-0.158-0.068-0.455-0.088-0.645
	c-0.039-0.578-0.061-1.161-0.061-1.75C343.142,337.508,343.151,337.085,343.173,336.663z M368.998,363.791
	c-6.542,0-12.522-2.443-17.081-6.463c5.453,3.736,12.517,4.234,15.983,4.234c11.514,0,18.09-4.303,21.488-7.744
	C384.65,359.885,377.273,363.791,368.998,363.791z"/>
</svg>
